# xmcd CD database file
#
# Track frame offsets:
#	150
#	22234
#	43869
#	66075
#
# Disc length: 1169 seconds
#
# Revision: 2
# Processed by: cddbd v1.5.2PL0 Copyright (c) Steve Scherf et al.
# Submitted via: CDex 1.70beta2
#
DISCID=35048f04
DTITLE=Perfume - Dream Fighter
DYEAR=2008
DGENRE=J-Pop
TTITLE0=Dream Fighter
TTITLE1=願い
TTITLE2=田中ヤスタカ - Dream Fighter -Original Instrumental-
TTITLE3=田中ヤスタカ - 願い -Original Instrumental-
EXTD=YEAR: 2008
EXTT0=
EXTT1=
EXTT2=
EXTT3=
PLAYORDER=
